<mxfile host="65bd71144e">
    <diagram id="xckwo_Ypl-v1aEoBa0Nb" name="Страница 1">
        <mxGraphModel dx="843" dy="2812" grid="1" gridSize="10" guides="1" tooltips="1" connect="1" arrows="1" fold="1" page="1" pageScale="1" pageWidth="827" pageHeight="1169" math="0" shadow="0">
            <root>
                <mxCell id="0"/>
                <mxCell id="1" parent="0"/>
                <mxCell id="2" value="&lt;table class=&quot;highlight tab-size js-file-line-container js-code-nav-container js-tagsearch-file&quot;&gt;&lt;tbody&gt;&lt;tr&gt;&lt;td id=&quot;LC3&quot; class=&quot;blob-code blob-code-inner js-file-line&quot;&gt;&lt;span class=&quot;pl-c&quot;&gt;Задано уравнение вида q + w = e, q, w, e &amp;gt;= 0. &lt;/span&gt;&lt;/td&gt;        &lt;/tr&gt;        &lt;tr&gt;          &lt;/tr&gt;&lt;/tbody&gt;&lt;/table&gt;&lt;table class=&quot;highlight tab-size js-file-line-container js-code-nav-container js-tagsearch-file&quot;&gt;&lt;tbody&gt;&lt;tr&gt;&lt;td id=&quot;LC4&quot; class=&quot;blob-code blob-code-inner js-file-line&quot;&gt;&lt;span class=&quot;pl-c&quot;&gt;Некоторые цифры могут быть заменены знаком вопроса, например 2? + ?5 = 69. &lt;/span&gt;&lt;/td&gt;        &lt;/tr&gt;        &lt;tr&gt;          &lt;/tr&gt;&lt;/tbody&gt;&lt;/table&gt;&lt;table class=&quot;highlight tab-size js-file-line-container js-code-nav-container js-tagsearch-file&quot;&gt;&lt;tbody&gt;&lt;tr&gt;&lt;td id=&quot;LC5&quot; class=&quot;blob-code blob-code-inner js-file-line&quot;&gt;&lt;span class=&quot;pl-c&quot;&gt;Требуется восстановить выражение до верного равенства. &lt;/span&gt;&lt;/td&gt;        &lt;/tr&gt;        &lt;tr&gt;          &lt;/tr&gt;&lt;/tbody&gt;&lt;/table&gt;&lt;span class=&quot;pl-c&quot;&gt;Предложить хотя бы одно решение или сообщить, что его нет.&lt;/span&gt;" style="text;html=1;align=left;verticalAlign=middle;resizable=0;points=[];autosize=1;strokeColor=none;fillColor=none;" vertex="1" parent="1">
                    <mxGeometry x="10" y="-2330" width="470" height="80" as="geometry"/>
                </mxCell>
                <mxCell id="3" value="АЛГОРИТМ:" style="text;html=1;align=center;verticalAlign=middle;resizable=0;points=[];autosize=1;strokeColor=none;fillColor=none;" vertex="1" parent="1">
                    <mxGeometry x="20" y="-2220" width="80" height="20" as="geometry"/>
                </mxCell>
                <mxCell id="4" value="Спроектируем сущности программы:&lt;br&gt;&lt;br&gt;1. Отображение условия задачи.&lt;br&gt;2. Запрос ввода от пользователя.&lt;br&gt;3. Проверка ввода&lt;br&gt;&lt;span&gt;&#9;&lt;/span&gt;&lt;span&gt;&#9;&lt;/span&gt;&lt;span style=&quot;white-space: pre&quot;&gt;&#9;&lt;/span&gt;3.1 У&lt;span class=&quot;pl-c&quot;&gt;даляем из строки все пробелы и невидимые символы.&lt;br&gt;&lt;span&gt;&#9;&lt;/span&gt;&lt;span style=&quot;white-space: pre&quot;&gt;&#9;&lt;/span&gt;3.2. В цикле, превращаем строку в массив символов с проверкой соответствия условию.&lt;br&gt;4. Слагаемые&lt;br&gt;&lt;span&gt;&#9;&lt;/span&gt;&lt;span&gt;&#9;&lt;/span&gt;&lt;span style=&quot;white-space: pre&quot;&gt;&#9;&lt;/span&gt;4.1 Выделяем первое слагаемое. Запоминаем на каких разрядах вопросы.&lt;br&gt;&lt;span&gt;&#9;&lt;/span&gt;&lt;span&gt;&#9;&lt;/span&gt;&lt;span style=&quot;white-space: pre&quot;&gt;&#9;&lt;/span&gt;4.2 Выделяем второе слагаемое. Запоминаем на каких разрядах вопросы.&lt;br&gt;5. Перебор&lt;br&gt;&lt;span&gt;&#9;&lt;/span&gt;&lt;span style=&quot;white-space: pre&quot;&gt;&#9;&lt;/span&gt;5.1 Итеративно&amp;nbsp;&lt;br&gt;&lt;span&gt;&#9;&lt;/span&gt;&lt;span style=&quot;white-space: pre&quot;&gt;&#9;&lt;/span&gt;5.2 Рекурсивно&amp;nbsp;&lt;br&gt;Читтерство: Если сумма не содержит вопросов, можно проверять разность суммы и любого слагаемого.&lt;br&gt;Увеличивать разряд слагаемого и проверять совпадает ли результат&amp;nbsp; известного разряда в ответе с разрядом искомого слагаемого.&lt;br&gt;6. Проверка&lt;br&gt;&lt;span&gt;&#9;&lt;/span&gt;&lt;span&gt;&#9;&lt;/span&gt;&lt;span style=&quot;white-space: pre&quot;&gt;&#9;&lt;/span&gt;6.1 Делаем проверку, при верном равенстве возвращаем выражение.&lt;br&gt;7. Отображаем результат в консоль.&lt;br&gt;&lt;/span&gt;" style="text;html=1;align=left;verticalAlign=middle;resizable=0;points=[];autosize=1;strokeColor=none;fillColor=none;" vertex="1" parent="1">
                    <mxGeometry x="10" y="-2200" width="760" height="260" as="geometry"/>
                </mxCell>
                <mxCell id="6" value="ИТЕРАТИВНЫЙ ПЕРЕБОР" style="text;html=1;align=left;verticalAlign=middle;resizable=0;points=[];autosize=1;strokeColor=none;fillColor=none;" vertex="1" parent="1">
                    <mxGeometry x="20" y="-1920" width="170" height="20" as="geometry"/>
                </mxCell>
                <mxCell id="7" value="&lt;span&gt;1. На местах всех вопросов обоих слагаемых ставим ноль.&lt;/span&gt;&lt;span&gt;(На местах всех вопросов обоих слагаемых ставим ноль.&lt;br&gt;2.&amp;nbsp;&lt;/span&gt;Увеличиваем на каждой итерации неизвестные разряды чисел последовательно, начиная с младших.&lt;span&gt;&lt;br&gt;&lt;/span&gt;" style="text;html=1;align=left;verticalAlign=middle;resizable=0;points=[];autosize=1;strokeColor=none;fillColor=none;" vertex="1" parent="1">
                    <mxGeometry x="10" y="-1900" width="670" height="30" as="geometry"/>
                </mxCell>
                <mxCell id="8" value="РЕКУРСИВНО" style="text;html=1;align=left;verticalAlign=middle;resizable=0;points=[];autosize=1;strokeColor=none;fillColor=none;" vertex="1" parent="1">
                    <mxGeometry x="20" y="-1860" width="100" height="20" as="geometry"/>
                </mxCell>
                <mxCell id="9" value="1. Задаем конечное условие, при котором выходим из цикла проверок.&lt;br&gt;2. Задаем условие вызова функции с итератором." style="text;html=1;align=left;verticalAlign=middle;resizable=0;points=[];autosize=1;strokeColor=none;fillColor=none;" vertex="1" parent="1">
                    <mxGeometry x="10" y="-1840" width="410" height="30" as="geometry"/>
                </mxCell>
            </root>
        </mxGraphModel>
    </diagram>
</mxfile>